<!-- icon666.com - MILLIONS vector ICONS FREE --><svg version="1.1" id="Layer_1" xmlns="http://www.w3.org/2000/svg" xmlns:xlink="http://www.w3.org/1999/xlink" x="0px" y="0px" viewBox="0 0 512 512" style="enable-background:new 0 0 512 512;" xml:space="preserve"><g><g><g><path d="M432,352h-48v-48c0-8.832-7.168-16-16-16c-8.832,0-16,7.168-16,16v48h-48c-8.832,0-16,7.168-16,16 c0,8.832,7.168,16,16,16h48v48c0,8.832,7.168,16,16,16c8.832,0,16-7.168,16-16v-48h48c8.832,0,16-7.168,16-16 C448,359.168,440.832,352,432,352z" fill="#000000" style="fill: rgb(255, 255, 255);"></path><path d="M232,176c-30.88,0-56,25.12-56,56c0,4.416,3.584,8,8,8s8-3.584,8-8c0-22.048,17.952-40,40-40c4.416,0,8-3.584,8-8 S236.416,176,232,176z" fill="#000000" style="fill: rgb(255, 255, 255);"></path><path d="M480,277.696V126.544c0-16.592-12.448-30.288-28.976-31.856l-90.816-8.64L342.48,32.816 C335.936,13.184,317.632,0,296.944,0H183.072c-20.688,0-38.992,13.184-45.536,32.816l-17.744,53.232l-90.816,8.64 C12.448,96.256,0,109.952,0,126.544V384c0,17.648,14.352,32,32,32h200.4c19.84,55.84,73.04,96,135.6,96 c79.392,0,144-64.608,144-144C512,333.824,499.968,302.416,480,277.696z M224.944,384H32V126.544l111.552-10.624l24.336-72.976 C170.064,36.4,176.16,32,183.056,32h113.872c6.896,0,13.008,4.4,15.184,10.944l24.336,72.976L448,126.544v121.808 C425.104,232.992,397.584,224,368,224c-5.792,0-11.488,0.448-17.104,1.12C343.568,170.384,296.704,128,240,128 c-61.76,0-112,50.24-112,112c0,56.704,42.384,103.568,97.12,110.896C224.448,356.512,224,362.208,224,368 C224,373.408,224.352,378.736,224.944,384z M160,240c0-44.112,35.888-80,80-80c41.6,0,75.488,32.048,79.264,72.672 c-40.208,14.528-72.064,46.384-86.592,86.592C192.048,315.488,160,281.6,160,240z M368,480c-61.76,0-112-50.24-112-112 s50.24-112,112-112s112,50.24,112,112S429.76,480,368,480z" fill="#000000" style="fill: rgb(255, 255, 255);"></path></g></g></g></svg>