<!-- icon666.com - MILLIONS vector ICONS FREE --><svg enable-background="new 0 0 64 64" viewBox="0 0 64 64" xmlns="http://www.w3.org/2000/svg" xmlns:xlink="http://www.w3.org/1999/xlink"><linearGradient id="lg1"><stop offset="0" stop-color="rgb(0,0,0)"></stop><stop offset="1" stop-color="rgb(0,0,0)"></stop></linearGradient><linearGradient id="SVGID_1_" gradientUnits="userSpaceOnUse" x1="8.343" x2="41.657" xlink:href="#lg1" y1="15.343" y2="48.657"></linearGradient><linearGradient id="SVGID_00000164474544368555379740000002417514416230785443_" gradientUnits="userSpaceOnUse" x1="44.942" x2="62.109" y1="23.058" y2="40.225"><stop offset="0" stop-color="rgb(0,0,0)"></stop><stop offset="1" stop-color="rgb(0,0,0)"></stop></linearGradient><linearGradient id="SVGID_00000025416946362704346600000011344091800280484281_" gradientUnits="userSpaceOnUse" x1="18.544" x2="29.456" y1="26.045" y2="36.957"><stop offset="0" stop-color="rgb(0,0,0)"></stop><stop offset="1" stop-color="rgb(0,0,0)"></stop></linearGradient><linearGradient id="SVGID_00000080178462783376107650000000456154335418292101_" gradientUnits="userSpaceOnUse" x1="10.756" x2="51.494" xlink:href="#lg1" y1="11.524" y2="52.261"></linearGradient><linearGradient id="SVGID_00000114785682603554777340000015731024535360967330_" gradientUnits="userSpaceOnUse" x1="18.544" x2="29.456" xlink:href="#lg1" y1="26.045" y2="36.957"></linearGradient><g id="Flat_Gradient" display="none"><path d="m37 50h-24c-4.418 0-8-3.582-8-8v-20c0-4.418 3.582-8 8-8h24c4.418 0 8 3.582 8 8v20c0 4.418-3.582 8-8 8z" display="inline" fill="url(#SVGID_1_)" style="fill: rgb(187, 255, 0);"></path><path d="m45 23 8.015-4.58c2.667-1.524 5.985.401 5.985 3.473v19.781c0 3.165-3.501 5.076-6.163 3.365l-7.837-5.039z" display="inline" fill="url(#SVGID_00000164474544368555379740000002417514416230785443_)" style="fill: rgb(165, 131, 131);"></path><g display="inline"><path d="m30.72 28.69c-.2.21-.46.31-.72.31-.25 0-.5-.09-.69-.28l-4.31-4.14v16.42c0 .55-.45 1-1 1s-1-.45-1-1v-16.43l-4.31 4.15c-.39.38-1.03.37-1.41-.03-.38-.39-.37-1.03.03-1.41l4.58-4.41c1.16-1.16 3.06-1.16 4.23.01l4.57 4.4c.4.38.41 1.02.03 1.41z" fill="url(#SVGID_00000025416946362704346600000011344091800280484281_)" style="fill: rgb(194, 0, 0);"></path></g></g><g id="Flat_Outline" display="none"><path d="m37 50h-24c-4.418 0-8-3.582-8-8v-20c0-4.418 3.582-8 8-8h24c4.418 0 8 3.582 8 8v20c0 4.418-3.582 8-8 8z" display="inline" fill="rgb(0,0,0)" style="fill: rgb(104, 26, 168);"></path><path d="m45 40v2c0 4.42-3.58 8-8 8h-24c-4.42 0-8-3.58-8-8v-2c0 4.42 3.58 8 8 8h24c4.42 0 8-3.58 8-8z" display="inline" fill="rgb(0,0,0)" style="fill: rgb(104, 26, 168);"></path><path d="m45 23 8.015-4.58c2.667-1.524 5.985.401 5.985 3.473v19.781c0 3.165-3.501 5.076-6.163 3.365l-7.837-5.039z" display="inline" fill="rgb(0,0,0)" style="fill: rgb(104, 26, 168);"></path><path d="m59 39.67v2c0 3.17-3.5 5.08-6.16 3.37l-7.84-5.04v-2l7.84 5.04c2.66 1.71 6.16-.2 6.16-3.37z" display="inline" fill="rgb(0,0,0)" style="fill: rgb(104, 26, 168);"></path><path d="m24 42c-.553 0-1-.447-1-1v-17c0-.553.447-1 1-1s1 .447 1 1v17c0 .553-.447 1-1 1z" display="inline" fill="rgb(0,0,0)" style="fill: rgb(104, 26, 168);"></path><path d="m30 29c-.25 0-.499-.093-.693-.279l-4.586-4.414c-.402-.402-1.038-.402-1.428-.014l-4.6 4.428c-.396.382-1.031.371-1.414-.027-.383-.397-.371-1.031.027-1.414l4.586-4.414c1.155-1.155 3.058-1.157 4.229.014l4.572 4.4c.398.383.41 1.017.027 1.414-.196.203-.457.306-.72.306z" display="inline" fill="rgb(0,0,0)" style="fill: rgb(104, 26, 168);"></path><path d="m37 51h-24c-4.963 0-9-4.037-9-9v-20c0-4.963 4.037-9 9-9h24c4.963 0 9 4.037 9 9v20c0 4.963-4.037 9-9 9zm-24-36c-3.859 0-7 3.141-7 7v20c0 3.859 3.141 7 7 7h24c3.859 0 7-3.141 7-7v-20c0-3.859-3.141-7-7-7z" display="inline" fill="#000000" style="fill: rgb(212, 255, 0);"></path><path d="m54.994 46.684c-.935 0-1.865-.269-2.698-.805l-8.296-5.333v-18.126l8.52-4.868c1.562-.895 3.429-.891 4.989.016 1.559.905 2.491 2.521 2.491 4.325v19.78c0 1.857-.974 3.498-2.604 4.389-.761.416-1.584.622-2.402.622zm-8.994-7.23 7.378 4.743c.938.604 2.082.642 3.06.109.978-.534 1.562-1.519 1.562-2.633v-19.78c0-1.082-.559-2.052-1.495-2.595-.934-.544-2.054-.547-2.993-.01l-7.512 4.292z" display="inline" fill="#000000" style="fill: rgb(212, 255, 0);"></path><path d="m24 42c-.553 0-1-.447-1-1v-17c0-.553.447-1 1-1s1 .447 1 1v17c0 .553-.447 1-1 1z" display="inline" fill="#000000" style="fill: rgb(212, 255, 0);"></path><path d="m30 29c-.25 0-.499-.093-.693-.279l-4.586-4.414c-.402-.402-1.038-.402-1.428-.014l-4.6 4.428c-.396.382-1.031.371-1.414-.027-.383-.397-.371-1.031.027-1.414l4.586-4.414c1.155-1.155 3.058-1.157 4.229.014l4.572 4.4c.398.383.41 1.017.027 1.414-.196.203-.457.306-.72.306z" display="inline" fill="#000000" style="fill: rgb(212, 255, 0);"></path></g><g id="Flat" display="none"><path d="m37 50h-24c-4.418 0-8-3.582-8-8v-20c0-4.418 3.582-8 8-8h24c4.418 0 8 3.582 8 8v20c0 4.418-3.582 8-8 8z" display="inline" fill="rgb(0,0,0)" style="fill: rgb(104, 26, 168);"></path><path d="m45 40v2c0 4.42-3.58 8-8 8h-24c-4.42 0-8-3.58-8-8v-2c0 4.42 3.58 8 8 8h24c4.42 0 8-3.58 8-8z" display="inline" fill="rgb(0,0,0)" style="fill: rgb(104, 26, 168);"></path><path d="m45 23 8.015-4.58c2.667-1.524 5.985.401 5.985 3.473v19.781c0 3.165-3.501 5.076-6.163 3.365l-7.837-5.039z" display="inline" fill="rgb(0,0,0)" style="fill: rgb(104, 26, 168);"></path><path d="m59 39.67v2c0 3.17-3.5 5.08-6.16 3.37l-7.84-5.04v-2l7.84 5.04c2.66 1.71 6.16-.2 6.16-3.37z" display="inline" fill="rgb(0,0,0)" style="fill: rgb(104, 26, 168);"></path><g fill="rgb(0,0,0)"><path d="m24 42c-.553 0-1-.447-1-1v-17c0-.553.447-1 1-1s1 .447 1 1v17c0 .553-.447 1-1 1z" display="inline" fill="rgb(0,0,0)" style="fill: rgb(104, 26, 168);"></path><path d="m30 29c-.25 0-.499-.093-.693-.279l-4.586-4.414c-.402-.402-1.038-.402-1.428-.014l-4.6 4.428c-.396.382-1.031.371-1.414-.027-.383-.397-.371-1.031.027-1.414l4.586-4.414c1.155-1.155 3.058-1.157 4.229.014l4.572 4.4c.398.383.41 1.017.027 1.414-.196.203-.457.306-.72.306z" display="inline" fill="rgb(0,0,0)" style="fill: rgb(104, 26, 168);"></path></g></g><g id="Outline"><g><path d="m37 51h-24c-4.963 0-9-4.037-9-9v-20c0-4.963 4.037-9 9-9h24c4.963 0 9 4.037 9 9v20c0 4.963-4.037 9-9 9zm-24-36c-3.859 0-7 3.141-7 7v20c0 3.859 3.141 7 7 7h24c3.859 0 7-3.141 7-7v-20c0-3.859-3.141-7-7-7z" fill="#000000" style="fill: rgb(212, 255, 0);"></path></g><g><path d="m54.994 46.684c-.935 0-1.865-.269-2.698-.805l-8.296-5.333v-18.126l8.52-4.868c1.562-.895 3.429-.891 4.989.016 1.559.905 2.491 2.521 2.491 4.325v19.78c0 1.857-.974 3.498-2.604 4.389-.761.416-1.584.622-2.402.622zm-8.994-7.23 7.378 4.743c.938.604 2.082.642 3.06.109.978-.534 1.562-1.519 1.562-2.633v-19.78c0-1.082-.559-2.052-1.495-2.595-.934-.544-2.054-.547-2.993-.01l-7.512 4.292z" fill="#000000" style="fill: rgb(212, 255, 0);"></path></g><g><path d="m24 42c-.553 0-1-.447-1-1v-17c0-.553.447-1 1-1s1 .447 1 1v17c0 .553-.447 1-1 1z" fill="#000000" style="fill: rgb(212, 255, 0);"></path></g><g><path d="m30 29c-.25 0-.499-.093-.693-.279l-4.586-4.414c-.402-.402-1.038-.402-1.428-.014l-4.6 4.428c-.396.382-1.031.371-1.414-.027-.383-.397-.371-1.031.027-1.414l4.586-4.414c1.155-1.155 3.058-1.157 4.229.014l4.572 4.4c.398.383.41 1.017.027 1.414-.196.203-.457.306-.72.306z" fill="#000000" style="fill: rgb(212, 255, 0);"></path></g></g><g id="Outline_Gradient" display="none"><g display="inline"><path d="m57.51 17.57c-1.56-.91-3.43-.91-4.99-.02l-6.55 3.74c-.36-4.63-4.25-8.29-8.97-8.29h-24c-4.96 0-9 4.04-9 9v20c0 4.96 4.04 9 9 9h24c4.96 0 9-4.04 9-9v-.17l6.3 4.05c.83.54 1.76.8 2.69.8.82 0 1.64-.2 2.41-.62 1.63-.89 2.6-2.53 2.6-4.39v-19.78c0-1.8-.93-3.42-2.49-4.32zm-13.51 24.43c0 3.86-3.14 7-7 7h-24c-3.86 0-7-3.14-7-7v-20c0-3.86 3.14-7 7-7h24c3.86 0 7 3.14 7 7zm14-.33c0 1.12-.58 2.1-1.56 2.64-.98.53-2.12.49-3.06-.11l-7.38-4.75v-15.87l7.51-4.29c.94-.54 2.06-.54 2.99.01.94.54 1.5 1.51 1.5 2.59z" fill="url(#SVGID_00000080178462783376107650000000456154335418292101_)"></path></g><g display="inline"><path d="m30.72 28.69c-.2.21-.46.31-.72.31-.25 0-.5-.09-.69-.28l-4.31-4.14v16.42c0 .55-.45 1-1 1s-1-.45-1-1v-16.43l-4.31 4.15c-.39.38-1.03.37-1.41-.03-.38-.39-.37-1.03.03-1.41l4.58-4.41c1.16-1.16 3.06-1.16 4.23.01l4.57 4.4c.4.38.41 1.02.03 1.41z" fill="url(#SVGID_00000114785682603554777340000015731024535360967330_)" style="fill: rgb(73, 29, 29);"></path></g></g><g id="Outline_Color" display="none"><g display="inline"><path d="m57.51 17.57c-1.56-.91-3.43-.91-4.99-.02l-6.55 3.74c-.36-4.63-4.25-8.29-8.97-8.29h-24c-4.96 0-9 4.04-9 9v20c0 4.96 4.04 9 9 9h24c4.96 0 9-4.04 9-9v-.17l6.3 4.05c.83.54 1.76.8 2.69.8.82 0 1.64-.2 2.41-.62 1.63-.89 2.6-2.53 2.6-4.39v-19.78c0-1.8-.93-3.42-2.49-4.32zm-13.51 24.43c0 3.86-3.14 7-7 7h-24c-3.86 0-7-3.14-7-7v-20c0-3.86 3.14-7 7-7h24c3.86 0 7 3.14 7 7zm14-.33c0 1.12-.58 2.1-1.56 2.64-.98.53-2.12.49-3.06-.11l-7.38-4.75v-15.87l7.51-4.29c.94-.54 2.06-.54 2.99.01.94.54 1.5 1.51 1.5 2.59z" fill="rgb(0,0,0)" style="fill: rgb(104, 26, 168);"></path></g><g display="inline"><path d="m30.72 28.69c-.2.21-.46.31-.72.31-.25 0-.5-.09-.69-.28l-4.31-4.14v16.42c0 .55-.45 1-1 1s-1-.45-1-1v-16.43l-4.31 4.15c-.39.38-1.03.37-1.41-.03-.38-.39-.37-1.03.03-1.41l4.58-4.41c1.16-1.16 3.06-1.16 4.23.01l4.57 4.4c.4.38.41 1.02.03 1.41z" fill="rgb(0,0,0)" style="fill: rgb(104, 26, 168);"></path></g></g><g id="Glyph" display="none"><g display="inline"><g><path d="m58 21.89v19.78c0 1.12-.58 2.1-1.56 2.64-.98.53-2.12.49-3.06-.11l-7.38-4.75v-15.87l7.51-4.29c.94-.54 2.06-.54 2.99.01.94.54 1.5 1.51 1.5 2.59z" fill="#000000" style="fill: rgb(212, 255, 0);"></path><path d="m37 15h-24c-3.86 0-7 3.14-7 7v20c0 3.86 3.14 7 7 7h24c3.86 0 7-3.14 7-7v-20c0-3.86-3.14-7-7-7zm-6.28 13.69c-.2.21-.46.31-.72.31-.25 0-.5-.09-.69-.28l-4.31-4.14v16.42c0 .55-.45 1-1 1s-1-.45-1-1v-16.43l-4.31 4.15c-.39.38-1.03.37-1.41-.03-.38-.39-.37-1.03.03-1.41l4.58-4.41c1.16-1.16 3.06-1.16 4.23.01l4.57 4.4c.4.38.41 1.02.03 1.41z" fill="#000000" style="fill: rgb(212, 255, 0);"></path></g></g></g></svg>