<!-- icon666.com - MILLIONS vector ICONS FREE --><svg version="1.1" id="Capa_1" xmlns="http://www.w3.org/2000/svg" xmlns:xlink="http://www.w3.org/1999/xlink" x="0px" y="0px" viewBox="0 0 484.357 484.357" style="enable-background:new 0 0 484.357 484.357;" xml:space="preserve"><g><path d="M411.24,111.29c-45.443-26.168-105.483-40.58-169.061-40.58S118.561,85.122,73.118,111.29 C25.967,138.441,0,174.991,0,214.206v57.032c0,39.171,25.983,75.537,73.162,102.398c45.316,25.801,105.341,40.011,169.017,40.011 s123.701-14.21,169.017-40.011c47.179-26.862,73.162-63.228,73.162-102.398v-57.032C484.357,174.991,458.391,138.441,411.24,111.29 z M83.597,129.488c42.306-24.361,98.624-37.778,158.581-37.778s116.276,13.416,158.581,37.778 c40.367,23.245,62.597,53.331,62.597,84.718c0,31.208-22.199,60.891-62.508,83.58c-42.093,23.693-98.443,36.742-158.671,36.742 S125.601,321.48,83.508,297.786C43.199,275.097,21,245.415,21,214.206C21,182.82,43.23,152.733,83.597,129.488z M231.679,355.394 v37.113c-24.905-0.643-49.046-3.573-71.671-8.607v-36.524C182.787,352.069,206.896,354.793,231.679,355.394z M252.679,355.394 c24.783-0.601,48.892-3.326,71.671-8.018v36.524c-22.625,5.034-46.766,7.964-71.671,8.607V355.394z M21.033,272.719 c6.847,8.957,15.314,17.468,25.303,25.417v29.091C30.204,310.467,21.462,291.875,21.033,272.719z M67.335,345.087v-32.436 c1.924,1.16,3.872,2.309,5.872,3.435c19.474,10.961,41.705,19.794,65.8,26.305v36.1c-20.234-5.952-38.931-13.696-55.455-23.103 C77.766,352.093,72.365,348.651,67.335,345.087z M400.805,355.387c-16.523,9.408-35.221,17.152-55.455,23.103v-36.1 c24.095-6.51,46.327-15.343,65.8-26.305c2-1.126,3.948-2.275,5.872-3.435v32.436C411.993,348.651,406.592,352.093,400.805,355.387z M438.022,327.228v-29.091c9.988-7.949,18.456-16.46,25.303-25.417C462.895,291.875,454.153,310.467,438.022,327.228z" fill="#000000" style="fill: rgb(253, 255, 107);"></path><path d="M265.59,307.911c88.966,0,158.656-41.36,158.656-94.159c0-5.799-4.701-10.5-10.5-10.5s-10.5,4.701-10.5,10.5 c0,18.53-13.511,36.34-38.044,50.15c-26.36,14.838-61.737,23.009-99.612,23.009c-5.799,0-10.5,4.701-10.5,10.5 S259.791,307.911,265.59,307.911z" fill="#000000" style="fill: rgb(253, 255, 107);"></path><path d="M77.845,224.252c5.799,0,10.5-4.701,10.5-10.5c0-44.387,70.603-81.886,154.174-81.886c5.799,0,10.5-4.701,10.5-10.5 c0-5.799-4.701-10.5-10.5-10.5c-45.678,0-88.86,10.144-121.592,28.565c-34.553,19.445-53.582,45.84-53.582,74.321 C67.345,219.551,72.046,224.252,77.845,224.252z" fill="#000000" style="fill: rgb(253, 255, 107);"></path></g></svg>