<!-- icon666.com - MILLIONS vector ICONS FREE --><svg id="Capa_1" enable-background="new 0 0 512 512" viewBox="0 0 512 512" xmlns="http://www.w3.org/2000/svg"><g><g id="layer21" transform="translate(-52.123 -51.33)"><path id="LINE-19" d="m232.591 51.354c-9.353.937-16.473 8.813-16.463 18.213l.539 146.314h-36.57c-10.099.045-18.25 8.269-18.204 18.369.02 4.365 1.6 8.578 4.455 11.88l127.958 146.314c6.647 7.604 18.2 8.379 25.803 1.731.615-.538 1.193-1.116 1.731-1.731l128.065-146.314c6.606-7.639 5.769-19.187-1.87-25.793-3.301-2.855-7.515-4.436-11.88-4.455h-36.713l-.394-146.314c-.04-10.098-8.258-18.252-18.356-18.213h-146.206c-.631-.033-1.262-.033-1.893 0h-.002zm20.141 36.427h109.709l.539 146.457c.04 10.056 8.193 18.193 18.249 18.213h14.571l-87.746 100.174-87.603-100.174h14.571c10.1-.021 18.27-8.224 18.249-18.324 0-.011 0-.021 0-.032zm-182.384 274.273c-10.098.04-18.252 8.258-18.213 18.356v164.528c-.058 10.099 8.082 18.334 18.181 18.392h.032 475.549c10.099-.04 18.254-8.26 18.214-18.359 0-.011 0-.022 0-.032v-164.529c.039-10.098-8.115-18.316-18.213-18.356h-109.746c-10.099-.038-18.318 8.118-18.356 18.217v.139 73.175h-219.347v-73.175c.038-10.099-8.117-18.318-18.217-18.356-.046 0-.093 0-.139 0zm18.392 36.569h73.139v73.175c-.038 10.098 8.115 18.316 18.213 18.356h256.059c10.098-.04 18.252-8.258 18.213-18.356v-73.175h73.175v128.101h-438.799z"></path></g></g></svg>