<!-- icon666.com - MILLIONS vector ICONS FREE --><svg enable-background="new 0 0 512 512" viewBox="0 0 512 512" xmlns="http://www.w3.org/2000/svg"><g id="_x31_022_x2C__arrow_x2C__down_x2C__download"><g><path d="m143.738 248.528c-4.267 7.792-3.946 17.282.838 24.769.388.604 36.811 47.514 104.522 134.832 3.999 5.155 11.842 5.175 15.842-.05 107.157-139.99 102.715-134.112 103.141-134.783 4.784-7.485 5.105-16.976.838-24.768s-12.436-12.632-21.32-12.632h-21.484v-169.782c-.001-13.847-11.267-25.114-25.115-25.114h-90c-13.848 0-25.114 11.267-25.114 25.114v169.782h-20.827c-8.884 0-17.054 4.841-21.321 12.632zm17.541 9.608c.458-.836 1.558-2.239 3.779-2.239h30.827c5.523 0 10-4.478 10-10v-179.783c0-2.82 2.294-5.114 5.114-5.114h90c2.82 0 5.114 2.294 5.114 5.114v179.782c0 5.522 4.478 10 10 10h31.484c2.221 0 3.321 1.402 3.779 2.239.436.796.991 2.358.012 4.122l-94.441 123.359-95.691-123.38c-.964-1.754-.411-3.307.023-4.1z"></path><path d="m441 171h-70c-5.523 0-10 4.477-10 10s4.477 10 10 10h60v260h-350v-260h60c5.523 0 10-4.477 10-10s-4.477-10-10-10h-70c-5.523 0-10 4.477-10 10v280c0 5.522 4.477 10 10 10h370c5.522 0 10-4.478 10-10v-280c0-5.523-4.478-10-10-10z"></path></g></g></svg>