<!-- icon666.com - MILLIONS vector ICONS FREE --><svg version="1.1" id="Layer_1" xmlns="http://www.w3.org/2000/svg" xmlns:xlink="http://www.w3.org/1999/xlink" x="0px" y="0px" viewBox="0 0 512.012 512.012" style="enable-background:new 0 0 512.012 512.012;" xml:space="preserve"><g><g><path d="M442.99,309.867c-5.36-19.6-16.352-35.344-26.96-50.56c-9.6-13.744-18.64-26.704-22.464-41.168 c-5.04-19.104-3.184-44.88,17.152-59.952c5.92-4.384,8.096-12.256,5.232-19.04c-2.848-6.784-10.048-10.768-17.232-9.616 c-23.744,3.744-45.872,14.528-62.32,30.384c-9.312,9.008-16.064,19.088-20.496,30.832c-12.112-9.872-23.792-20.176-33.792-31.296 c-16.368-18.16-26.224-36.336-29.264-54.032c-5.088-29.504,8.336-57.936,35.904-76.032c6.448-4.24,8.96-12.464,5.968-19.568 c-2.992-7.088-10.704-11.12-18.144-9.44c-32.288,7.008-61.84,24.896-81.12,49.088c-19.664,24.672-28.88,56.128-25.296,86.304 c1.6,13.36,5.488,25.84,9.248,37.904c2.368,7.616,4.64,14.848,6.256,22.016c-12.464-20.48-27.744-35.072-46.336-44.368 c-6.576-3.296-14.576-1.664-19.376,3.984c-4.768,5.632-5.056,13.808-0.704,19.76c18.72,25.632,7.376,60.08,1.632,73.696 c-5.664,13.424-13.6,26.24-22.016,39.808c-13.152,21.216-26.752,43.152-32.304,69.136c-8.416,39.36,4.56,82.416,33.072,109.728 c27.344,26.16,72.432,40.976,134.032,44c5.28,0.272,10.464,0.432,15.44,0.512l5.376,0.064c41.184,0,99.216-8.304,141.76-47.872 C439.326,424.075,457.678,363.531,442.99,309.867z M254.478,480.012l-4.816-0.048c-4.64-0.064-9.456-0.224-14.384-0.48 c-20.96-1.04-39.68-3.616-56.08-7.568c-2.624-8.8-2.976-17.728-0.72-26.304c2.496-9.52,6.416-18.624,10.56-28.272 c2.336-5.456,4.688-10.928,6.768-16.464c1.872-4.976,3.392-9.696,4.576-14.224c2.016,9.312,2.512,18.832,1.44,28.336 c-0.384,3.552,1.616,6.944,4.912,8.304c3.264,1.344,7.088,0.368,9.328-2.432l3.008-3.808 c11.888-14.992,24.208-30.496,32.224-49.424c6.144-14.528,9.92-28.288,11.36-41.056c3.776,13.2,5.216,27.312,4.016,41.392 c-0.416,4.944-1.28,9.936-2.128,14.928c-2.368,14.08-4.832,28.656,0.72,43.472c4,10.672,11.216,19.68,20.336,25.344 c2.544,1.6,5.76,1.616,8.336,0.064c2.56-1.536,4.064-4.384,3.872-7.376l-0.208-2.976c-0.896-13.648-1.712-26.528,0.88-39.152 c1.168-5.776,5.008-12.304,9.808-17.584c-2.336,30.736,6.56,62.032,22.944,82.416C304.83,477.259,276.846,480.012,254.478,480.012 z M374.462,440.699c-8.624,8.032-18.16,14.464-28.144,19.648c-18.608-19.968-27.328-58.128-19.536-90.976 c0.672-2.832-0.256-5.808-2.4-7.776c-2.16-1.968-5.2-2.608-7.952-1.648c-15.184,5.168-30.288,22.72-33.648,39.12 c-1.584,7.696-2.064,15.36-2.048,22.928c-0.176-0.416-0.336-0.848-0.496-1.28c-4.032-10.784-2.032-22.64,0.08-35.2 c0.928-5.424,1.824-10.848,2.288-16.208c3.04-35.568-8.144-70.08-30.736-94.704c-2.784-3.04-7.44-3.472-10.72-0.976 c-3.296,2.496-4.144,7.072-1.968,10.592c14.736,23.792,6.704,55.088-2.64,77.152c-4.848,11.472-11.52,21.6-18.976,31.536 c-1.984-16.288-7.824-32.336-17.136-46.72c-2.144-3.296-6.368-4.544-9.952-2.976c-3.6,1.6-5.504,5.552-4.496,9.344 c3.056,11.664,1.44,25.216-5.136,42.672c-2,5.328-4.256,10.56-6.496,15.792c-4.192,9.744-8.528,19.84-11.328,30.512 c-2.192,8.288-2.592,16.784-1.376,25.232c-16.656-5.744-30.192-13.2-39.856-22.448c-20.672-19.792-30.064-51.168-23.92-79.92 c4.384-20.544,15.968-39.216,28.224-58.976c8.688-14.016,17.664-28.512,24.32-44.224c6.288-14.928,9.92-29.696,10.928-43.76 c1.472,2.672,2.896,5.472,4.288,8.416c8.576,18.112,10.128,38.48,4.336,57.344c-2.352,7.728,1.408,16,8.784,19.296 c7.44,3.328,16.048,0.56,20.224-6.352c19.12-31.744,25.776-68.624,18.736-103.808c-1.952-9.792-4.88-19.152-7.696-28.208 c-3.488-11.168-6.784-21.712-8.016-32.16c-2.64-21.712,4.112-44.528,18.48-62.56c1.024-1.296,2.096-2.56,3.2-3.792 c-4.128,14.496-5.024,29.856-2.368,45.264c4.096,23.744,16.544,47.312,37.008,70.016c17.28,19.2,37.808,35.264,57.664,50.784 c4.576,3.584,10.816,4.416,16.16,2.096c5.376-2.304,9.056-7.328,9.632-13.152c1.6-16.32,6.8-27.952,16.88-37.68 c0.8-0.768,1.6-1.504,2.416-2.24c-3.008,14.256-2.608,29.824,1.568,45.632c5.28,19.936,16.4,35.872,27.152,51.296 c9.488,13.584,18.432,26.416,22.336,40.704C423.71,360.619,408.926,408.668,374.462,440.699z" fill="#000000" style="fill: rgb(255, 255, 255);"></path></g></g></svg>