<!-- icon666.com - MILLIONS vector ICONS FREE --><svg version="1.1" id="Capa_1" xmlns="http://www.w3.org/2000/svg" xmlns:xlink="http://www.w3.org/1999/xlink" x="0px" y="0px" viewBox="0 0 347.603 347.603" style="enable-background:new 0 0 347.603 347.603;" xml:space="preserve"><g><g><path style="fill: rgb(255, 255, 255);" d="M121.684,207.92c-22.975,0-44.361-8.929-60.207-25.18C28.744,149.177,30.155,94.51,64.635,60.895 c16.728-16.305,38.626-25.286,61.689-25.286c22.975,0,44.361,8.946,60.207,25.18c32.733,33.562,31.304,88.229-3.159,121.844 C166.645,198.938,144.729,207.92,121.684,207.92z M126.324,51.896c-18.775,0-36.65,7.341-50.308,20.663 c-28.021,27.351-29.31,71.677-2.859,98.798c25.639,26.274,71.677,26.098,98.834-0.406c28.039-27.351,29.327-71.659,2.859-98.798 C162.128,59.096,144.888,51.896,126.324,51.896z" fill="#231F20"></path><path style="fill: rgb(255, 255, 255);" d="M301.776,347.603L301.776,347.603c-11.593,0-22.41-4.535-30.457-12.793l-67.16-68.854 c-7.394-7.588-11.629-17.822-11.911-28.551l-10.111-10.358c-18.828,10.764-39.968,16.411-61.601,16.411 c-32.433,0-62.607-12.617-84.929-35.503C-10.624,160.558-8.595,83.323,40.16,35.786C63.823,12.723,94.792,0,127.401,0 c32.45,0,62.642,12.634,84.999,35.538c38.079,39.032,44.044,99.663,15.44,146.954l10.199,10.446 c11.487,0.776,20.981,5.153,28.145,12.528l67.16,68.836c7.905,8.099,12.176,18.828,12.034,30.209 c-0.141,11.382-4.676,22.022-12.793,29.927C323.48,343.333,312.946,347.603,301.776,347.603z M184.52,207.884 c0.688,0,1.394,0.088,2.082,0.265c2.241,0.6,4.111,2.117,5.17,4.164c0.776,1.535,1.359,2.682,1.959,3.282l12.546,12.864 c1.606,1.641,2.435,3.9,2.312,6.194c-0.459,7.57,2.1,14.664,7.235,19.922l67.16,68.854c9.705,9.97,27.086,10.164,37.074,0.459 c6.123-5.964,8.911-12.528,8.999-19.551c0.088-7.023-2.541-13.658-7.411-18.634l-67.16-68.836 c-4.87-4.994-11.523-7.746-18.722-7.746c-2.206,0-5.611-0.865-7.147-2.435l-12.546-12.864c-0.6-0.6-1.694-1.218-2.964-1.906 c-2.029-1.112-3.635-3.123-4.164-5.364c-0.529-2.241-0.229-4.694,1.112-6.599c29.045-41.75,25.128-97.687-9.335-133.013 c-19.251-19.746-45.297-30.633-73.318-30.633c-28.321,0-55.249,11.064-75.859,31.162C9.245,88.723,7.322,155.618,47.289,196.591 c19.234,19.728,45.244,30.58,73.247,30.58c21.122,0,41.697-6.194,59.484-17.946C181.379,208.343,182.95,207.884,184.52,207.884z" fill="#231F20"></path></g></g></svg>