<!-- icon666.com - MILLIONS vector ICONS FREE --><svg version="1.1" id="Capa_1" xmlns="http://www.w3.org/2000/svg" xmlns:xlink="http://www.w3.org/1999/xlink" x="0px" y="0px" viewBox="0 0 512 512" style="enable-background:new 0 0 512 512;" xml:space="preserve"><g><g><path d="M309.333,85.333c5.891,0,10.667-4.776,10.667-10.667v-32C320,19.103,300.897,0,277.333,0H74.667 C51.102,0,32,19.103,32,42.667v426.667C32,492.898,51.102,512,74.667,512h202.667C300.897,512,320,492.898,320,469.333v-32 c0-5.891-4.776-10.667-10.667-10.667h-74.667c-2.829,0.001-5.541,1.125-7.541,3.125L208.917,448h-65.835l-18.208-18.208 c-2-2-4.713-3.125-7.541-3.125h-64V85.333H309.333z M53.333,42.667c0-11.782,9.551-21.333,21.333-21.333h202.667 c11.782,0,21.333,9.551,21.333,21.333V64H53.333V42.667z M112.917,448l18.208,18.208c2,2.001,4.713,3.125,7.541,3.125h74.667 c2.829-0.001,5.541-1.125,7.541-3.125L239.083,448h59.584v21.333c0,11.782-9.551,21.333-21.333,21.333H74.667 c-11.782,0-21.333-9.551-21.333-21.333V448H112.917z" fill="#000000" style="fill: rgb(4, 255, 0);"></path></g></g><g><g><rect x="149.333" y="32" width="74.667" height="21.333" fill="#000000" style="fill: rgb(4, 255, 0);"></rect></g></g><g><g><rect x="106.667" y="32" width="21.333" height="21.333" fill="#000000" style="fill: rgb(4, 255, 0);"></rect></g></g><g><g><path d="M320,128H170.667c-5.891,0-10.667,4.776-10.667,10.667V288c0,5.891,4.776,10.667,10.667,10.667H320 c5.891,0,10.667-4.776,10.667-10.667V138.667C330.667,132.776,325.891,128,320,128z M309.333,277.333h-128v-128h128V277.333z" fill="#000000" style="fill: rgb(4, 255, 0);"></path></g></g><g><g><path d="M473.308,56.924c-11.334-15.533-33.114-18.936-48.647-7.602l-110.933,80.715c-2.761,2.007-4.395,5.215-4.395,8.629V288 c0.009,3.422,1.66,6.631,4.437,8.629l110.933,80.715c5.947,4.337,13.12,6.668,20.48,6.656h0 c19.221-0.018,34.798-15.595,34.816-34.816V77.483C480.008,70.093,477.664,62.893,473.308,56.924z M458.667,349.184 c0.001,2.849-0.901,5.625-2.575,7.93c-4.377,6.024-12.809,7.359-18.833,2.982l-106.592-77.525V144.096l106.592-77.525 c2.305-1.675,5.081-2.576,7.93-2.575c7.446,0.003,13.481,6.041,13.478,13.487V349.184z" fill="#000000" style="fill: rgb(4, 255, 0);"></path></g></g><g><g><path d="M267.787,283.232l-21.333,42.667c-0.738,1.481-1.122,3.113-1.12,4.768v32c0,5.891-4.776,10.667-10.667,10.667H160 c-5.891,0-10.667-4.776-10.667-10.667v-5.76l70.923-60.811l-13.867-16.192l-74.667,64C129.36,345.93,128,348.887,128,352v10.667 c0,17.673,14.327,32,32,32h74.667c17.673,0,32-14.327,32-32v-29.483l20.213-40.416L267.787,283.232z" fill="#000000" style="fill: rgb(4, 255, 0);"></path></g></g><g><g><path d="M128,170.667h42.667v-21.333H128c-17.673,0-32,14.327-32,32v64c0,17.673,14.327,32,32,32h42.667V256H128 c-5.891,0-10.667-4.776-10.667-10.667v-64C117.333,175.442,122.109,170.667,128,170.667z" fill="#000000" style="fill: rgb(4, 255, 0);"></path></g></g><g><g><path d="M277.333,170.667V192h-64v-21.333H192v32c0,5.891,4.776,10.667,10.667,10.667H288c5.891,0,10.667-4.776,10.667-10.667v-32 H277.333z" fill="#000000" style="fill: rgb(4, 255, 0);"></path></g></g><g><g><rect x="213.333" y="234.667" width="21.333" height="21.333" fill="#000000" style="fill: rgb(4, 255, 0);"></rect></g></g><g><g><rect x="256" y="234.667" width="21.333" height="21.333" fill="#000000" style="fill: rgb(4, 255, 0);"></rect></g></g><g><g><rect x="298.667" y="320" width="21.333" height="21.333" fill="#000000" style="fill: rgb(4, 255, 0);"></rect></g></g><g><g><rect x="330.667" y="352" width="21.333" height="21.333" fill="#000000" style="fill: rgb(4, 255, 0);"></rect></g></g><g><g><rect x="362.667" y="384" width="21.333" height="21.333" fill="#000000" style="fill: rgb(4, 255, 0);"></rect></g></g><g><g><rect x="352" y="42.667" width="21.333" height="21.333" fill="#000000" style="fill: rgb(4, 255, 0);"></rect></g></g><g><g><rect x="384" y="21.333" width="21.333" height="21.333" fill="#000000" style="fill: rgb(4, 255, 0);"></rect></g></g><g><g><rect x="416" width="21.333" height="21.333" fill="#000000" style="fill: rgb(4, 255, 0);"></rect></g></g><g><g><rect x="298.667" y="362.667" width="21.333" height="74.667" fill="#000000" style="fill: rgb(4, 255, 0);"></rect></g></g><g><g><rect x="298.667" y="74.667" width="21.333" height="32" fill="#000000" style="fill: rgb(4, 255, 0);"></rect></g></g><g><g><path d="M91.925,117.333l-7.659-15.435l-19.147,9.536l10.667,21.333c1.807,3.617,5.504,5.901,9.547,5.899h53.333v-21.333H91.925z" fill="#000000" style="fill: rgb(4, 255, 0);"></path></g></g><g><g><path d="M85.333,288c-4.024,0.018-7.695,2.299-9.493,5.899l-10.667,21.333l19.093,9.536l7.659-15.435h46.741V288H85.333z" fill="#000000" style="fill: rgb(4, 255, 0);"></path></g></g></svg>