<!-- icon666.com - MILLIONS vector ICONS FREE --><svg id="Flat" viewBox="0 0 64 64" xmlns="http://www.w3.org/2000/svg"><rect fill="#797f82" height="60" rx="4" width="40" x="12" y="2" style="fill: rgb(0, 255, 30);"></rect><path d="m16 6h10l2 3h8l2-3h10v48h-32z" fill="#d3e8ef" style="fill: rgb(255, 255, 255);"></path><path d="m18 54h30v-46h-11.333l-.667 1h-8l-.667-1h-9.333z" fill="#e4f2f9" style="fill: rgb(255, 255, 255);"></path><path d="m21 59h-2a1 1 0 0 1 0-2h2a1 1 0 0 1 0 2z" fill="#5c5e5f" style="fill: rgb(255, 255, 255);"></path><path d="m45 59h-2a1 1 0 0 1 0-2h2a1 1 0 0 1 0 2z" fill="#5c5e5f" style="fill: rgb(255, 255, 255);"></path><path d="m34 59h-4a1 1 0 0 1 0-2h4a1 1 0 0 1 0 2z" fill="#5c5e5f" style="fill: rgb(255, 255, 255);"></path><circle cx="32" cy="24" fill="#f9d0b0" r="5" style="fill: rgb(0, 255, 4);"></circle><path d="m23 35v4h18v-4a6 6 0 0 0 -6-6h-6a6 6 0 0 0 -6 6z" fill="#39e2b6" style="fill: rgb(4, 255, 0);"></path><g fill="#ea496d"><path d="m44 20a1 1 0 0 1 -1-1v-4h-4a1 1 0 0 1 0-2h5a1 1 0 0 1 1 1v5a1 1 0 0 1 -1 1z" fill="#ea496d" style="fill: rgb(4, 255, 0);"></path><path d="m20 20a1 1 0 0 1 -1-1v-5a1 1 0 0 1 1-1h5a1 1 0 0 1 0 2h-4v4a1 1 0 0 1 -1 1z" fill="#ea496d" style="fill: rgb(4, 255, 0);"></path><path d="m44 50h-5a1 1 0 0 1 0-2h4v-4a1 1 0 0 1 2 0v5a1 1 0 0 1 -1 1z" fill="#ea496d" style="fill: rgb(4, 255, 0);"></path><path d="m25 50h-5a1 1 0 0 1 -1-1v-5a1 1 0 0 1 2 0v4h4a1 1 0 0 1 0 2z" fill="#ea496d" style="fill: rgb(4, 255, 0);"></path></g></svg>