<!-- icon666.com - MILLIONS vector ICONS FREE --><svg id="final" viewBox="0 0 100 100" xmlns="http://www.w3.org/2000/svg"><g><path d="m77.5 84h-14v-69c0-.553-.447-1-1-1h-19v-9c0-.347-.18-.668-.475-.851s-.662-.198-.973-.044l-20 10c-.338.17-.552.516-.552.895v69h-14c-.553 0-1 .447-1 1s.447 1 1 1h14.764l19.789 9.895c.634.341 1.469-.175 1.447-.895v-9h34c.553 0 1-.447 1-1s-.447-1-1-1zm-36 9.382-18-9v-68.764l18-9zm2-9.382v-68h18v68z" fill="#000000" style="fill: rgb(255, 255, 255);"></path><path d="m37.5 36.5c-.553 0-1 .447-1 1v30c0 .553.447 1 1 1s1-.447 1-1v-30c0-.553-.447-1-1-1z" fill="#000000" style="fill: rgb(255, 255, 255);"></path><path d="m52.499 37.59c-1.229-.614-3.272-1.012-4.873.631-.855.877-1.235 1.942-1.099 3.08.394 3.259 4.927 6.171 5.442 6.492.162.101.346.151.529.151s.367-.051.528-.151c.517-.321 5.051-3.233 5.444-6.492.138-1.138-.242-2.203-1.098-3.08-1.598-1.642-3.641-1.245-4.873-.631zm3.987 3.47c-.206 1.715-2.601 3.716-3.987 4.685-1.386-.969-3.78-2.969-3.986-4.685-.064-.537.108-.995.546-1.443.412-.423.878-.562 1.312-.562.771 0 1.444.438 1.558.515.343.239.801.238 1.146-.003.068-.049 1.687-1.16 2.868.052.435.445.608.903.543 1.441z" fill="#000000" style="fill: rgb(255, 255, 255);"></path><path d="m71.97 42.793c.162.101.346.151.529.151s.367-.051.528-.151c.517-.321 5.051-3.233 5.444-6.492.138-1.138-.242-2.203-1.098-3.08-1.6-1.641-3.643-1.246-4.875-.631-1.23-.613-3.272-1.012-4.873.631-.855.877-1.235 1.942-1.099 3.08.395 3.259 4.928 6.171 5.444 6.492zm-2.911-8.177c.412-.423.878-.562 1.312-.562.771 0 1.444.438 1.558.515.343.239.801.238 1.146-.003.067-.048 1.687-1.161 2.868.052.436.447.608.905.544 1.442-.206 1.715-2.601 3.716-3.987 4.685-1.386-.969-3.78-2.969-3.986-4.685-.066-.538.107-.996.545-1.444z" fill="#000000" style="fill: rgb(255, 255, 255);"></path><path d="m71.97 27.793c.162.101.346.151.529.151s.367-.051.528-.151c.517-.321 5.051-3.233 5.444-6.492.138-1.138-.242-2.203-1.098-3.08-1.6-1.641-3.643-1.245-4.875-.631-1.23-.613-3.272-1.011-4.873.631-.855.877-1.235 1.942-1.099 3.08.395 3.259 4.928 6.171 5.444 6.492zm-2.911-8.177c.412-.423.878-.562 1.312-.562.771 0 1.444.438 1.558.515.343.239.801.238 1.146-.003.067-.048 1.687-1.161 2.868.052.436.447.608.905.544 1.442-.206 1.715-2.601 3.716-3.987 4.685-1.386-.969-3.78-2.969-3.986-4.685-.066-.538.107-.996.545-1.444z" fill="#000000" style="fill: rgb(255, 255, 255);"></path><path d="m92.374 23.221c-1.601-1.642-3.644-1.246-4.875-.631-1.23-.614-3.272-1.012-4.873.631-.855.877-1.235 1.942-1.099 3.08.394 3.259 4.927 6.171 5.442 6.492.162.101.346.151.529.151s.367-.051.528-.151c.517-.321 5.051-3.233 5.444-6.492.139-1.138-.241-2.203-1.096-3.08zm-.888 2.839c-.206 1.715-2.601 3.716-3.987 4.685-1.386-.969-3.78-2.969-3.986-4.685-.064-.537.108-.995.546-1.443.412-.423.878-.562 1.312-.562.771 0 1.444.438 1.558.515.343.239.801.238 1.146-.003.067-.048 1.687-1.16 2.868.052.435.445.608.903.543 1.441z" fill="#000000" style="fill: rgb(255, 255, 255);"></path></g></svg>