<!-- icon666.com - MILLIONS vector ICONS FREE --><svg enable-background="new 0 0 512 512" viewBox="0 0 512 512" xmlns="http://www.w3.org/2000/svg" xmlns:xlink="http://www.w3.org/1999/xlink"><linearGradient id="SVGID_1_" gradientUnits="userSpaceOnUse" x1="76.143" x2="435.845" y1="435.749" y2="76.047"><stop offset="0" stop-color="#7a34f4"></stop><stop offset=".344" stop-color="#6473f6"></stop><stop offset=".6365" stop-color="#54a2f8"></stop><stop offset=".8603" stop-color="#4abef9"></stop><stop offset=".9888" stop-color="#46c9f9"></stop></linearGradient><g id="_x34_8_Stream"><path d="m435.85 76.051c-7.945-7.961-21.825-7.957-29.77-.004-3.976 3.973-6.166 9.259-6.166 14.885 0 5.623 2.19 10.909 6.166 14.881 40.018 40.018 62.055 93.319 62.055 150.084 0 56.769-22.037 110.065-62.055 150.08-3.976 3.976-6.166 9.263-6.166 14.885 0 5.623 2.19 10.909 6.158 14.877 3.973 3.98 9.259 6.174 14.889 6.174 5.626 0 10.913-2.193 14.885-6.17 47.971-47.967 74.391-111.837 74.391-179.846 0-68.013-26.419-131.886-74.387-179.846zm-8.5 351.205c-3.409 3.406-9.36 3.417-12.778-.004-1.709-1.709-2.647-3.976-2.647-6.389 0-2.416.938-4.684 2.647-6.393 42.286-42.282 65.574-98.597 65.574-158.572s-23.288-116.29-65.574-158.576c-1.709-1.709-2.647-3.976-2.647-6.389 0-2.416.938-4.684 2.647-6.393s3.976-2.647 6.393-2.647c2.412 0 4.68.938 6.389 2.647 45.704 45.696 70.872 106.55 70.872 171.358 0 64.8-25.169 125.654-70.876 171.358zm-351.204-351.208c-47.968 47.963-74.383 111.836-74.383 179.85s26.416 131.887 74.375 179.846c3.973 3.98 9.259 6.174 14.889 6.174 5.626 0 10.913-2.193 14.885-6.17 3.976-3.973 6.166-9.259 6.166-14.881 0-5.626-2.19-10.913-6.166-14.885-40.022-40.022-62.063-93.319-62.063-150.084 0-56.761 22.04-110.061 62.063-150.084 3.976-3.973 6.166-9.259 6.166-14.881 0-5.626-2.19-10.913-6.166-14.885-7.956-7.957-21.833-7.949-29.766 0zm21.274 21.274c-42.29 42.29-65.582 98.609-65.582 158.576 0 59.971 23.292 116.286 65.582 158.576 1.709 1.709 2.647 3.976 2.647 6.393 0 2.412-.938 4.68-2.651 6.393-3.409 3.406-9.36 3.417-12.778-.004-45.696-45.696-70.864-106.55-70.864-171.358 0-64.804 25.168-125.662 70.868-171.362 1.705-1.705 3.973-2.643 6.385-2.643s4.684.938 6.393 2.647 2.647 3.976 2.647 6.393c0 2.412-.938 4.68-2.647 6.389zm270.475 270.475c-3.976 3.973-6.166 9.259-6.166 14.881 0 5.623 2.19 10.909 6.162 14.881 3.973 3.98 9.259 6.17 14.885 6.17 5.623 0 10.909-2.19 14.885-6.166 78.113-78.117 78.117-205.218.004-283.331-7.945-7.953-21.829-7.953-29.767 0-3.976 3.976-6.166 9.263-6.166 14.885 0 5.623 2.19 10.909 6.166 14.881 61.696 61.704 61.692 162.1-.003 223.799zm8.497-232.291c-1.709-1.709-2.647-3.976-2.647-6.389 0-2.416.938-4.684 2.651-6.397 1.705-1.705 3.973-2.643 6.385-2.643 2.416 0 4.684.938 6.393 2.647 73.429 73.429 73.425 192.91-.004 266.346-3.417 3.417-9.372 3.417-12.782 0-1.709-1.709-2.647-3.98-2.647-6.393s.938-4.68 2.647-6.389c66.379-66.382 66.383-174.398.004-240.782zm-262.058-21.274c-37.782 37.782-58.591 88.095-58.591 141.666 0 53.574 20.809 103.884 58.583 141.662 3.973 3.98 9.259 6.174 14.889 6.174 5.626 0 10.913-2.193 14.885-6.17 3.976-3.973 6.166-9.259 6.166-14.881s-2.19-10.909-6.166-14.885c-29.841-29.841-46.274-69.578-46.274-111.899 0-42.318 16.434-82.058 46.274-111.899 3.976-3.973 6.166-9.259 6.166-14.881 0-5.623-2.19-10.909-6.166-14.885-7.944-7.955-21.828-7.955-29.766-.002zm21.274 21.274c-32.108 32.109-49.793 74.864-49.793 120.392s17.685 88.283 49.793 120.392c1.709 1.709 2.647 3.976 2.647 6.393 0 2.412-.938 4.68-2.651 6.393-3.409 3.406-9.36 3.421-12.778-.004-35.514-35.514-55.072-82.805-55.072-133.173 0-50.364 19.558-97.659 55.076-133.177 1.705-1.705 3.973-2.643 6.385-2.643 2.416 0 4.684.938 6.393 2.647s2.647 3.976 2.647 6.393c0 2.411-.938 4.679-2.647 6.387zm194.103 16.915c-3.976 3.973-6.166 9.259-6.166 14.885 0 5.623 2.19 10.909 6.166 14.881 19.648 19.651 30.47 45.825 30.47 73.707 0 27.878-10.823 54.059-30.474 73.714-3.976 3.973-6.166 9.259-6.166 14.885 0 5.623 2.19 10.909 6.162 14.877 3.973 3.98 9.259 6.17 14.885 6.17 5.623 0 10.909-2.19 14.885-6.166 27.604-27.604 42.806-64.354 42.806-103.481 0-39.123-15.202-75.873-42.802-103.473-7.953-7.952-21.829-7.952-29.766.001zm21.27 198.462c-3.417 3.417-9.372 3.417-12.782 0-1.709-1.709-2.647-3.976-2.647-6.389 0-2.416.938-4.684 2.647-6.393 21.919-21.923 33.993-51.119 33.993-82.207s-12.07-60.28-33.989-82.199c-1.709-1.709-2.647-3.976-2.647-6.389 0-2.416.938-4.684 2.651-6.397 1.705-1.705 3.973-2.643 6.385-2.643s4.684.938 6.393 2.647c25.333 25.333 39.283 59.064 39.283 94.981 0 35.921-13.951 69.652-39.287 94.989zm-198.462-198.462c-27.604 27.604-42.806 64.354-42.806 103.477 0 39.127 15.202 75.877 42.806 103.481 3.976 3.976 9.263 6.166 14.885 6.166 5.626 0 10.913-2.19 14.881-6.166 3.976-3.976 6.166-9.263 6.166-14.885s-2.19-10.909-6.166-14.881c-19.651-19.655-30.474-45.836-30.474-73.714 0-27.882 10.823-54.059 30.474-73.711 3.976-3.973 6.166-9.259 6.166-14.881 0-5.626-2.19-10.913-6.162-14.881-7.941-7.962-21.813-7.958-29.77-.005zm21.274 21.274c-21.919 21.919-33.993 51.115-33.993 82.203s12.074 60.284 33.993 82.207c1.709 1.709 2.647 3.976 2.647 6.389 0 2.416-.938 4.684-2.651 6.397-3.402 3.409-9.36 3.413-12.778-.004-25.337-25.337-39.287-59.068-39.287-94.989 0-35.917 13.951-69.648 39.287-94.985 1.709-1.709 3.98-2.647 6.393-2.647s4.68.938 6.389 2.647 2.647 3.976 2.647 6.393c0 2.412-.938 4.68-2.647 6.389zm82.203 4.911c-42.619 0-77.292 34.674-77.292 77.292s34.674 77.292 77.292 77.292 77.292-34.674 77.292-77.292-34.673-77.292-77.292-77.292zm0 142.573c-35.995 0-65.281-29.286-65.281-65.281s29.286-65.281 65.281-65.281 65.281 29.286 65.281 65.281-29.286 65.281-65.281 65.281zm35.714-78.055-42.231-26.486c-4.629-2.925-10.494-3.097-15.3-.438-4.813 2.655-7.804 7.714-7.804 13.204v52.988c0 5.493 2.991 10.553 7.804 13.208 2.276 1.255 4.782 1.877 7.288 1.877 2.788 0 5.568-.77 8-2.307l42.243-26.494c4.418-2.757 7.054-7.531 7.054-12.778-.001-5.247-2.644-10.029-7.054-12.774zm-6.366 15.366c-.004.004-.012.008-.016.012l-42.255 26.502c-1.365.856-2.612.352-3.093.078-.481-.262-1.595-1.056-1.595-2.69v-52.988c0-1.63 1.114-2.424 1.595-2.686.278-.156.821-.395 1.498-.395.485 0 1.036.121 1.607.481l42.259 26.506c1.271.79 1.408 2.076 1.408 2.588 0 .516-.137 1.802-1.408 2.592z" fill="url(#SVGID_1_)" style="fill: rgb(255, 255, 255);"></path></g></svg>