<!-- icon666.com - MILLIONS vector ICONS FREE --><svg id="Layer_1" enable-background="new 0 0 512 512" viewBox="0 0 512 512" xmlns="http://www.w3.org/2000/svg"><g><path d="m436.347 75.552c-7.967-7.983-21.886-7.979-29.853-.004-8.25 8.242-8.251 21.605 0 29.849 83.027 83.027 83.045 217.955 0 300.993-8.255 8.255-8.243 21.61-.008 29.845 8.245 8.261 21.609 8.259 29.857.004 99.532-99.525 99.552-261.155.004-360.687zm-8.524 352.174c-3.419 3.415-9.386 3.427-12.813-.004-1.713-1.713-2.654-3.987-2.654-6.407 0-2.423.941-4.697 2.654-6.41 87.742-87.734 87.747-230.277 0-318.024-3.538-3.538-3.545-9.271 0-12.817 3.539-3.539 9.271-3.546 12.817 0 94.826 94.81 94.842 248.824-.004 343.662z" fill="#000000" style="fill: rgb(112, 0, 0);"></path><path d="m75.649 75.548c-99.521 99.513-99.54 261.158-.008 360.69 8.245 8.261 21.609 8.259 29.857.004 8.249-8.241 8.251-21.605 0-29.849-83.043-83.043-83.049-217.947 0-300.996 8.249-8.241 8.251-21.605 0-29.849-7.979-7.979-21.894-7.971-29.849 0zm21.333 21.333c-87.753 87.753-87.756 230.273 0 318.028 3.536 3.536 3.55 9.267-.004 12.821-3.419 3.415-9.386 3.427-12.813-.004-94.821-94.821-94.826-248.836.004-343.666 3.525-3.525 9.261-3.548 12.813.004 3.538 3.539 3.545 9.271 0 12.817z" fill="#000000" style="fill: rgb(112, 0, 0);"></path><path d="m368.204 368.103c-8.248 8.24-8.251 21.597-.004 29.845 8.237 8.254 21.6 8.257 29.853.004 78.329-78.333 78.333-205.785.004-284.114-7.967-7.975-21.89-7.975-29.849 0-8.245 8.245-8.254 21.602 0 29.849 61.866 61.873 61.862 162.547-.004 224.416zm8.52-232.932c-3.543-3.543-3.543-9.274.004-12.821 3.517-3.517 9.253-3.556 12.813.004 73.632 73.632 73.628 193.442-.004 267.082-3.427 3.427-9.398 3.427-12.817 0-3.531-3.531-3.553-9.264 0-12.817 66.563-66.566 66.566-174.881.004-241.448z" fill="#000000" style="fill: rgb(112, 0, 0);"></path><path d="m113.943 113.838c-78.393 78.393-78.404 205.705-.008 284.11 8.245 8.261 21.609 8.259 29.857.004 8.249-8.241 8.251-21.597 0-29.849-61.918-61.918-61.922-162.495 0-224.416 8.249-8.241 8.251-21.597 0-29.849-7.967-7.975-21.89-7.975-29.849 0zm21.333 21.333c-66.628 66.628-66.628 174.82 0 241.448 3.536 3.536 3.55 9.267-.004 12.821-3.419 3.415-9.386 3.431-12.813-.004-73.686-73.686-73.699-193.383.004-267.086 3.517-3.517 9.253-3.556 12.813.004 3.538 3.539 3.545 9.272 0 12.817z" fill="#000000" style="fill: rgb(112, 0, 0);"></path><path d="m329.914 152.132c-8.25 8.242-8.251 21.605 0 29.849 40.772 40.78 40.774 107.042-.004 147.828-8.244 8.236-8.255 21.602-.004 29.845 8.237 8.254 21.6 8.256 29.853.004 57.271-57.271 57.285-150.245.004-207.526-7.975-7.974-21.89-7.974-29.849 0zm21.329 199.01c-3.427 3.427-9.398 3.427-12.817 0-3.538-3.538-3.546-9.271 0-12.817 45.48-45.488 45.492-119.372.004-164.86-3.543-3.543-3.543-9.274.004-12.821 3.525-3.525 9.261-3.548 12.813.004 52.56 52.56 52.571 137.919-.004 190.494z" fill="#000000" style="fill: rgb(112, 0, 0);"></path><path d="m152.233 152.132c-57.276 57.276-57.281 150.249 0 207.53 8.258 8.258 21.622 8.243 29.849 0 8.245-8.245 8.254-21.602 0-29.849-40.774-40.782-40.781-107.051 0-147.832 8.261-8.253 8.239-21.618.004-29.845-7.963-7.982-21.874-7.978-29.853-.004zm21.333 21.333c-45.487 45.487-45.485 119.371 0 164.864 3.543 3.543 3.543 9.274-.004 12.821-3.411 3.419-9.386 3.423-12.813-.004-52.565-52.565-52.575-137.923 0-190.498 3.531-3.531 9.264-3.553 12.817 0 3.539 3.539 3.545 9.272 0 12.817z" fill="#000000" style="fill: rgb(112, 0, 0);"></path><path d="m255.996 178.39c-42.736 0-77.506 34.769-77.506 77.506s34.769 77.506 77.506 77.506 77.506-34.769 77.506-77.506-34.77-77.506-77.506-77.506zm0 142.966c-36.094 0-65.461-29.366-65.461-65.461s29.366-65.461 65.461-65.461 65.461 29.366 65.461 65.461-29.367 65.461-65.461 65.461z" fill="#000000" style="fill: rgb(112, 0, 0);"></path><path d="m291.808 243.086-42.348-26.559c-10.006-6.321-23.168.896-23.168 12.801v53.134c0 11.981 13.264 19.063 23.156 12.813l42.36-26.567c9.45-5.896 9.411-19.765 0-25.622zm-6.383 15.409c-.004.004-.012.008-.016.012l-42.372 26.575c-2.051 1.287-4.701-.218-4.701-2.619v-53.134c0-2.363 2.622-3.925 4.713-2.607l42.376 26.579c1.89 1.173 1.874 4.029 0 5.194z" fill="#000000" style="fill: rgb(112, 0, 0);"></path></g></svg>