<!-- icon666.com - MILLIONS vector ICONS FREE --><svg viewBox="0 0 32 32" xmlns="http://www.w3.org/2000/svg"><g id="outline"><path d="m16 2.5a13.5 13.5 0 1 0 13.5 13.5 13.515 13.515 0 0 0 -13.5-13.5zm0 26a12.5 12.5 0 1 1 12.5-12.5 12.514 12.514 0 0 1 -12.5 12.5z" fill="#000000" style="fill: rgb(82, 0, 0);"></path><path d="m17.061 11.008a1.536 1.536 0 0 0 -2.122 0l-3.539 3.535a1.5 1.5 0 0 0 2.121 2.121l.975-.975v7.622a1.5 1.5 0 0 0 3 0v-7.622l.975.975a1.5 1.5 0 0 0 2.129-2.121zm2.828 4.949a.512.512 0 0 1 -.707 0l-1.828-1.828a.5.5 0 0 0 -.854.353v8.829a.5.5 0 0 1 -1 0v-8.829a.5.5 0 0 0 -.854-.353l-1.828 1.828a.512.512 0 0 1 -.707 0 .5.5 0 0 1 0-.707l3.535-3.535a.511.511 0 0 1 .708 0l3.535 3.535a.5.5 0 0 1 0 .707z" fill="#000000" style="fill: rgb(82, 0, 0);"></path><path d="m21 7.189h-10a1.5 1.5 0 0 0 0 3h10a1.5 1.5 0 0 0 0-3zm0 2h-10a.5.5 0 0 1 0-1h10a.5.5 0 0 1 0 1z" fill="#000000" style="fill: rgb(82, 0, 0);"></path></g></svg>